Coordinates
version=1
nRows=8
nColumns=63
inDegrees=yes

Units are S.I. units (second, meters, Newtons, ...)
If the header above contains a line with 'inDegrees', this indicates whether rotational values are in degrees (yes) or radians (no).

endheader
time	pelvis_tilt	pelvis_list	pelvis_rotation	pelvis_tx	pelvis_ty	pelvis_tz	hip_flexion_r	hip_adduction_r	hip_rotation_r	knee_angle_r	knee_angle_r_beta	ankle_angle_r	subtalar_angle_r	mtp_angle_r	hip_flexion_l	hip_adduction_l	hip_rotation_l	knee_angle_l	knee_angle_l_beta	ankle_angle_l	subtalar_angle_l	mtp_angle_l	L5_S1_Flex_Ext	L5_S1_Lat_Bending	L5_S1_axial_rotation	L4_L5_Flex_Ext	L4_L5_Lat_Bending	L4_L5_axial_rotation	L3_L4_Flex_Ext	L3_L4_Lat_Bending	L3_L4_axial_rotation	L2_L3_Flex_Ext	L2_L3_Lat_Bending	L2_L3_axial_rotation	L1_L2_Flex_Ext	L1_L2_Lat_Bending	L1_L2_axial_rotation	L1_T12_Flex_Ext	L1_T12_Lat_Bending	L1_T12_axial_rotation	Abs_r3	Abs_r2	Abs_r1	Abs_t1	Abs_t2	neck_flexion	neck_bending	neck_rotation	arm_flex_r	arm_add_r	arm_rot_r	elbow_flex_r	pro_sup_r	wrist_flex_r	wrist_dev_r	arm_flex_l	arm_add_l	arm_rot_l	elbow_flex_l	pro_sup_l	wrist_flex_l	wrist_dev_l
      7.90000000	     -0.16588438	     -7.54552730	     -6.30296569	     -1.62519951	      0.87579216	      0.25479752	     -1.53680224	      8.65083003	      1.18899303	      4.33354858	      0.07563469	      1.08996495	    -16.32325803	      0.00000000	      0.43730242	     -8.88612276	     -4.94587970	      7.63560028	      0.13326637	      3.95974365	    -16.98267342	      0.00000000	      0.00097406	      0.45460491	     -0.11612919	      0.00180892	      0.60462453	     -0.12338726	      0.00160028	      1.10532637	     -0.12338726	      0.00111325	      1.10532637	     -0.10161304	      0.00090451	      0.92703033	     -0.09435497	      0.00055658	      0.70418300	     -0.08709689	      0.00695758	      5.14258163	     -0.64587572	      0.00000000	      0.00000000	      0.00000000	      0.00000000	      0.00000000	     -3.37352007	      1.30060444	    -23.81938061	     31.74700670	     33.77741426	      0.00000000	      5.00000014	     -5.84328423	     11.99413719	    -51.82361278	     44.13581499	     39.13907374	      0.00000000	      5.00000014
      7.93333333	     -0.14469416	     -7.26753717	     -6.28117283	     -1.62539400	      0.87525658	      0.25509147	     -1.56061612	      8.37330657	      1.46233654	      4.29001022	      0.07487480	      1.27853329	    -16.30844375	      0.00000000	      0.79590002	     -8.65192781	     -5.61976655	      8.25129082	      0.14401219	      4.12436906	    -17.13841027	      0.00000000	      0.00095080	      0.44162701	     -0.15244290	      0.00176574	      0.58736392	     -0.16197058	      0.00156208	      1.07377191	     -0.16197058	      0.00108667	      1.07377191	     -0.13338753	      0.00088292	      0.90056579	     -0.12385985	      0.00054329	      0.68408023	     -0.11433217	      0.00679150	      4.99577304	     -0.84784165	      0.00000000	      0.00000000	      0.00000000	      0.00000000	      0.00000000	     -3.26922708	      1.27772492	    -24.15007373	     32.20334962	     33.59509371	      0.00000000	      5.00000014	     -5.88398908	     11.84912581	    -51.72954722	     43.93423513	     39.09080140	      0.00000000	      5.00000014
      7.96666667	     -0.11002610	     -6.74564205	     -6.26445236	     -1.62572855	      0.87455416	      0.25601280	     -1.57138793	      7.90275774	      1.76319344	      4.26500009	      0.07443829	      1.60693391	    -16.42128601	      0.00000000	      0.95864232	     -8.20736481	     -6.25804994	      8.54476127	      0.14913422	      4.04252779	    -17.27615010	      0.00000000	      0.00151912	      0.40646065	     -0.18113014	      0.00282116	      0.54059266	     -0.19245078	      0.00249577	      0.98826842	     -0.19245078	      0.00173620	      0.98826842	     -0.15848887	      0.00141066	      0.82885455	     -0.14716824	      0.00086803	      0.62960754	     -0.13584761	      0.01085094	      4.59796412	     -1.00739151	      0.00000000	      0.00000000	      0.00000000	      0.00000000	      0.00000000	     -3.19636380	      1.54897292	    -24.68073796	     32.55218698	     33.38791650	      0.00000000	      5.00000014	     -5.92091340	     11.51014257	    -51.45074482	     43.62189128	     39.06877041	      0.00000000	      5.00000014
      8.00000000	     -0.05259477	     -6.10248595	     -6.17098064	     -1.62603291	      0.87366704	      0.25742680	     -1.62864886	      7.36246112	      1.94296147	      4.18986878	      0.07312701	      2.04134456	    -16.59862563	      0.00000000	      0.95838745	     -7.66160889	     -6.77493399	      8.58390391	      0.14981739	      3.92029689	    -17.50760720	      0.00000000	      0.00125431	      0.37327564	     -0.24764206	      0.00232939	      0.49645660	     -0.26311969	      0.00206071	      0.90758239	     -0.26311969	      0.00143356	      0.90758239	     -0.21668680	      0.00116476	      0.76118368	     -0.20120917	      0.00071672	      0.57820396	     -0.18573154	      0.00895944	      4.22256867	     -1.37731083	      0.00000000	      0.00000000	      0.00000000	      0.00000000	      0.00000000	     -3.07951635	      1.93179575	    -24.96956833	     32.91210062	     33.29718899	      0.00000000	      5.00000014	     -6.01946362	     11.06678246	    -51.27581094	     43.26533357	     39.07001946	      0.00000000	      5.00000014
      8.03333333	      0.05835655	     -4.72270900	     -6.49603272	     -1.62654530	      0.87282408	      0.25998884	     -1.50163958	      6.08545651	      2.90898313	      4.44291186	      0.07754344	      2.74808675	    -17.25005876	      0.00000000	      0.67896245	     -6.37479088	     -7.37048679	      8.14887677	      0.14222473	      3.11704615	    -17.73266975	      0.00000000	     -0.00050379	      0.26443572	     -0.18000956	     -0.00093559	      0.35169951	     -0.19126015	     -0.00082768	      0.64294902	     -0.19126015	     -0.00057578	      0.64294902	     -0.15750836	     -0.00046782	      0.53923733	     -0.14625776	     -0.00028787	      0.40961094	     -0.13500717	     -0.00359853	      2.99134979	     -1.00115915	      0.00000000	      0.00000000	      0.00000000	      0.00000000	      0.00000000	     -2.99146096	      3.65938686	    -30.17326193	     34.27041230	     32.07312144	      0.00000000	      5.00000014	     -6.29984313	      9.59162304	    -48.15392538	     42.39638031	     39.26085485	      0.00000000	      5.00000014
      8.06666667	      0.17699804	     -3.82767729	     -6.32213099	     -1.62655621	      0.87208343	      0.26110209	     -1.65194631	      5.25461179	      2.97077993	      4.28381066	      0.07476660	      3.19907720	    -17.45524244	      0.00000000	      0.80831420	     -5.59407626	     -7.88709046	      8.48239190	      0.14804567	      3.04216213	    -17.80963313	      0.00000000	      0.00009548	      0.21370532	     -0.26047184	      0.00017732	      0.28422808	     -0.27675133	      0.00015687	      0.51960313	     -0.27675133	      0.00010913	      0.51960313	     -0.22791286	      0.00008867	      0.43578790	     -0.21163337	      0.00005456	      0.33102955	     -0.19535388	      0.00068204	      2.41747737	     -1.44866624	      0.00000000	      0.00000000	      0.00000000	      0.00000000	      0.00000000	     -2.91429314	      4.01217258	    -30.51884920	     35.00019917	     31.98896860	      0.00000000	      5.00000014	     -6.36807100	      9.14493539	    -48.09588711	     41.80758774	     39.24553456	      0.00000000	      5.00000014
      8.10000000	      0.22839010	     -2.92074293	     -6.16842916	     -1.62692749	      0.87153326	      0.26196022	     -1.66547801	      4.39083308	      3.06189477	      4.17821714	      0.07292365	      3.59110266	    -17.61220809	      0.00000000	      1.12138758	     -4.80479592	     -8.38817295	      8.94326295	      0.15608938	      2.89895477	    -17.68492296	      0.00000000	      0.00175123	      0.14431411	     -0.30258461	      0.00325221	      0.19193777	     -0.32149615	      0.00287710	      0.35088533	     -0.32149615	      0.00200148	      0.35088533	     -0.26476153	      0.00162619	      0.29428534	     -0.24584999	      0.00100065	      0.22354256	     -0.22693846	      0.01250886	      1.63251011	     -1.68288481	      0.00000000	      0.00000000	      0.00000000	      0.00000000	      0.00000000	     -2.93062327	      4.49748093	    -31.33616483	     35.94269276	     31.82956305	      0.00000000	      5.00000014	     -6.29663120	      8.55541281	    -47.75600405	     41.16823462	     39.25885162	      0.00000000	      5.00000014
      8.13333333	      0.23606618	     -2.55356241	     -6.31967552	     -1.62740023	      0.87113017	      0.26241127	     -1.54458915	      4.04789395	      3.30882179	      4.33340028	      0.07563210	      3.82673546	    -17.75447327	      0.00000000	      1.38007365	     -4.53528272	     -9.28088188	      9.39723227	      0.16401264	      3.28678299	    -17.10920163	      0.00000000	     -0.00083638	      0.13257410	     -0.25157496	     -0.00155325	      0.17632356	     -0.26729839	     -0.00137409	      0.32234067	     -0.26729839	     -0.00095590	      0.32234067	     -0.22012809	     -0.00077666	      0.27034511	     -0.20440465	     -0.00047791	      0.20535728	     -0.18868122	     -0.00597420	      1.49970476	     -1.39918444	      0.00000000	      0.00000000	      0.00000000	      0.00000000	      0.00000000	     -2.65558417	      5.72866134	    -36.73065071	     37.24683656	     30.78736506	      0.00000000	      5.00000014	     -6.42072641	      7.93322479	    -45.46972581	     40.64463090	     38.70094300	      0.00000000	      5.00000014
